<svg width="147" height="118" viewBox="0 0 147 118" fill="none" xmlns="http://www.w3.org/2000/svg">
  <path fill-rule="evenodd" clip-rule="evenodd" d="M146.117 72.7108C144.791 70.1505 140.812 65.5129 136.006 60.3693C138.735 58.9205 140.513 57.7401 140.82 57.0348C141.027 56.5596 140.345 56.0843 139.915 55.793C137.769 54.3212 131.545 51.393 123.887 47.9589C122.599 46.6787 121.35 45.4523 120.184 44.3024C123.895 38.3233 124.339 31.593 122.553 24.7861C117.854 7.00978 104.692 2.76309 87.4221 9.65438C82.9148 11.4481 73.9461 16.7143 71.3245 26.1045C70.4718 29.1639 70.3198 32.3762 70.8799 35.5024C65.8974 37.4112 59.512 39.8641 51.4019 42.7923C49.4012 41.7882 48.5887 41.5965 48.604 41.4892C48.6165 41.4278 48.6125 41.3642 48.5923 41.305C48.572 41.2457 48.5364 41.1929 48.489 41.1519C46.9559 40.2014 44.411 39.9024 44.02 40.2321C43.8213 40.3769 43.65 40.556 43.5141 40.761L42.3873 37.1122C43.0848 36.8209 44.8019 35.8321 46.0131 32.8349C46.8839 30.4542 47.31 27.9339 47.2702 25.3993C47.5967 24.9022 47.7544 24.3132 47.7198 23.7195C47.6853 23.1258 47.4605 22.559 47.0786 22.1031C47.0786 21.9192 47.0249 21.7429 47.0019 21.5589C47.1636 21.005 47.2916 20.4418 47.3852 19.8725C47.3852 18.9756 47.5998 17.5728 47.1859 16.7296C47.1313 16.3278 47.1313 15.9204 47.1859 15.5185C47.1859 14.2153 45.5455 13.6251 44.3726 12.5213C44.3726 11.6397 44.4416 10.6739 44.4493 9.88434C46.7806 9.22777 49.0629 8.40809 51.2793 7.43138C51.6779 7.22441 52.2911 6.88713 52.2988 6.46553C52.2988 4.66414 36.5615 0.501771 34.6221 0.954036C34.5531 0.739402 20.0117 6.02093 17.758 8.27459C17.7085 8.31984 17.669 8.3749 17.6419 8.43627C17.6149 8.49764 17.6009 8.56397 17.6009 8.63104C17.6009 8.6981 17.6149 8.76443 17.6419 8.8258C17.669 8.88717 17.7085 8.94223 17.758 8.98748C17.5222 10.128 17.5643 11.3085 17.8807 12.4293C17.6437 12.4473 17.417 12.5333 17.2278 12.677C17.0385 12.8208 16.8948 13.0161 16.8139 13.2395C16.7329 13.4629 16.7182 13.7049 16.7715 13.9365C16.8247 14.1681 16.9437 14.3794 17.1141 14.545C16.3476 15.6105 16.4626 17.8641 17.0298 19.0216C17.031 19.041 17.0366 19.0599 17.046 19.0769C17.0555 19.0939 17.0686 19.1085 17.0845 19.1198C17.1003 19.131 17.1185 19.1386 17.1376 19.1419C17.1568 19.1452 17.1764 19.1442 17.1951 19.1389C17.2139 19.1337 17.2312 19.1243 17.2458 19.1115C17.2604 19.0986 17.2719 19.0827 17.2796 19.0649C17.2873 19.047 17.2909 19.0277 17.2901 19.0082C17.2893 18.9888 17.2842 18.9698 17.2751 18.9526C17.1912 17.5442 17.2271 16.1313 17.3824 14.7289C17.5333 14.8049 17.6971 14.8517 17.8653 14.8669C17.5561 16.2013 17.6414 17.5968 18.1106 18.8836C18.1176 18.9119 18.1339 18.937 18.1568 18.9549C18.1798 18.9728 18.208 18.9826 18.2371 18.9826C18.2662 18.9826 18.2945 18.9728 18.3174 18.9549C18.3403 18.937 18.3566 18.9119 18.3636 18.8836C18.4863 16.7373 18.2486 16.8216 18.2256 14.9052C19.2681 14.7903 18.172 13.9471 19.3065 18.738C19.3017 18.7572 19.3014 18.7772 19.3055 18.7966C19.3096 18.8159 19.3181 18.8341 19.3303 18.8497C19.3425 18.8652 19.3581 18.8778 19.3758 18.8865C19.3936 18.8952 19.4132 18.8997 19.4329 18.8997C19.4527 18.8997 19.4722 18.8952 19.49 18.8865C19.5078 18.8778 19.5234 18.8652 19.5356 18.8497C19.5478 18.8341 19.5563 18.8159 19.5604 18.7966C19.5645 18.7772 19.5642 18.7572 19.5594 18.738C19.6781 17.3305 19.5059 15.9137 19.0535 14.5756C19.1662 14.4789 19.2598 14.3619 19.3295 14.2307C19.843 14.6906 19.7281 16.2927 20.3643 18.7457C20.3713 18.7739 20.3876 18.799 20.4105 18.8169C20.4334 18.8349 20.4617 18.8446 20.4908 18.8446C20.5199 18.8446 20.5481 18.8349 20.5711 18.8169C20.594 18.799 20.6103 18.7739 20.6173 18.7457C20.6173 17.4502 20.6633 14.3763 19.4214 13.9624C19.4524 13.7861 19.4449 13.6052 19.3995 13.4321C19.354 13.259 19.2717 13.0978 19.1581 12.9594C19.0446 12.8211 18.9024 12.709 18.7415 12.6307C18.5805 12.5524 18.4046 12.5099 18.2256 12.5059C18.296 11.5158 18.296 10.5219 18.2256 9.53173C18.172 9.07947 17.8194 9.82302 25.3545 11.1875C25.4082 12.0383 25.5002 13.3262 25.6152 14.4836C24.885 15.2519 24.2821 16.1317 23.8291 17.0899C23.1239 18.7457 23.8291 20.2788 24.3504 21.8502C24.4577 22.1568 24.4807 22.5018 24.5573 22.8237C24.68 23.391 24.8716 23.3833 24.818 23.9505C24.7643 24.5178 24.404 25.2997 24.634 25.9589C25.0408 26.7596 25.5568 27.5 26.1671 28.1589C26.5903 28.6346 26.8578 29.2285 26.9336 29.8606C26.9336 30.4432 28.1754 31.2328 28.5434 31.2634L29.0186 32.5052C29.4249 33.5477 32.1922 36.1387 33.02 36.8976C33.1044 37.5721 33.2807 39.1972 33.319 40.3317C33.0482 40.2492 32.7714 40.1877 32.4911 40.1477C28.9803 40.0941 12.3692 46.5868 6.55107 57.1958C-2.34858 73.4773 5.19427 84.5157 5.22493 84.5923C0.196365 89.6132 -2.77785 101.433 9.188 106.608C13.6325 108.456 18.2952 109.729 23.0626 110.394C22.9936 111.721 22.9016 117.24 24.22 117.293C24.6723 117.293 25.0326 116.734 25.2702 116.297C26.0282 114.7 26.6463 113.041 27.1176 111.337C29.4173 111.184 29.3406 111.222 29.4173 111.107C40.8349 111.971 52.3176 111.137 63.4904 108.631C63.5824 108.631 63.5824 108.67 63.7357 107.995L65.1308 107.757C72.7963 119.838 69.9754 105.665 67.6221 102.269C67.3549 101.777 66.9067 101.409 66.3726 101.242C68.0998 100.286 69.7641 99.221 71.3552 98.0529C75.801 100.795 80.4087 103.265 85.1531 105.45C88.6332 106.983 136.819 88.2411 138.551 84.2014C138.758 83.7261 138.076 83.2508 137.654 82.9596C136.545 82.247 135.396 81.5995 134.212 81.0202L134.304 80.3226C141.778 85.5122 148.072 76.4899 146.117 72.7108ZM18.9615 13.2802C19.2528 14.6216 16.8305 14.5143 17.3364 13.3951C17.3897 13.2878 17.4673 13.1945 17.5632 13.1226C17.659 13.0507 17.7704 13.0023 17.8883 12.9812C18.3329 12.8739 18.7699 12.8662 18.9615 13.2802ZM123.021 69.8132C112.373 74.0599 97.1343 79.4564 88.7712 81.1965C88.7523 81.1968 88.7337 81.2012 88.7166 81.2094C88.6996 81.2176 88.6845 81.2294 88.6725 81.2441C88.6605 81.2587 88.6518 81.2757 88.6471 81.294C88.6423 81.3124 88.6416 81.3315 88.645 81.3501C88.6484 81.3687 88.6558 81.3864 88.6667 81.4018C88.6776 81.4173 88.6917 81.4302 88.7081 81.4397C88.7245 81.4491 88.7427 81.4549 88.7616 81.4566C88.7804 81.4583 88.7994 81.4558 88.8172 81.4494C97.8778 79.7707 112.703 74.7191 123.435 70.2425C124.14 70.9707 124.837 71.6913 125.52 72.3812C114.941 76.9268 98.0388 83.3275 89.1008 85.3359C89.0824 85.3374 89.0645 85.3429 89.0484 85.3519C89.0322 85.3608 89.0182 85.3732 89.0072 85.388C88.9961 85.4028 88.9884 85.4199 88.9844 85.4379C88.9805 85.456 88.9804 85.4747 88.9843 85.4928C88.9881 85.5108 88.9958 85.5279 89.0067 85.5428C89.0176 85.5577 89.0316 85.5701 89.0477 85.5792C89.0638 85.5883 89.0817 85.5938 89.1001 85.5955C89.1185 85.5972 89.137 85.5949 89.1545 85.5888C98.905 83.6111 115.217 77.632 125.903 72.7644L126.907 73.7763C114.305 79.2341 89.4841 89.6899 86.027 90.1651C85.2604 85.9261 86.3873 80.6829 87.9587 78.4063C91.5385 78.4752 107.306 72.9331 120.713 67.3833C121.49 68.1805 122.259 68.9905 123.021 69.8132ZM86.2876 94.7031C83.8346 93.6529 80.9217 92.1735 77.7022 90.4181C77.8959 89.8637 78.0446 89.2946 78.1468 88.7163C80.8451 90.1268 83.5127 91.4529 86.2416 92.6411C88.7482 93.7449 115.639 83.8564 130.249 76.9881C130.709 77.4097 131.146 77.8083 131.568 78.1763C117.463 84.9449 88.7482 95.7226 86.2876 94.6648V94.7031ZM132.089 78.6056C132.672 79.0961 133.208 79.5331 133.691 79.901C133.597 81.0952 133.371 82.2753 133.016 83.4195C130.564 84.646 87.9817 103.043 84.7238 103.043C84.0799 100.238 84.9921 97.639 86.6402 95.2933C92.1594 95.3853 120.69 84.1554 132.089 78.5979V78.6056ZM44.526 66.3254C44.6978 66.2119 44.8594 66.0837 45.0089 65.9421C45.6911 65.2676 45.3768 64.501 44.6869 64.409C45.3385 63.6962 44.9552 62.6843 43.5908 62.9986C42.8313 63.1885 42.1439 63.5961 41.6131 64.1714C41.3754 63.5275 41.1531 62.8146 40.6855 62.577C40.3866 59.0509 40.1796 56.161 40.2409 55.5171C40.8852 55.4505 41.5357 55.4763 42.1726 55.5937C66.0277 56.7052 53.0883 59.9707 69.2089 50.5268C69.6535 52.2056 70.0981 54.7122 70.512 57.4794C69.8686 57.2888 69.1936 57.2288 68.5266 57.3031C67.1315 57.4258 67.0855 58.5066 67.9211 58.9665C67.7724 59.0289 67.6472 59.1366 67.5633 59.2742C67.4793 59.4118 67.4409 59.5724 67.4535 59.7331C67.5148 60.2927 68.1357 60.5533 68.6799 60.7066C68.105 61.1359 67.8751 61.9178 68.6033 62.324C69.4188 62.7123 70.3294 62.8561 71.2249 62.738C71.6542 66.1951 71.9914 69.4913 72.1984 71.5916C70.5887 73.347 64.2186 79.7784 61.9573 80.5449C61.2674 80.7826 42.9085 78.4216 42.1803 78.3219C42.1037 77.5554 41.7204 73.6843 41.3141 69.338C42.9085 69.0927 45.1469 68.4258 45.3692 67.4369C45.4765 66.9233 45.0242 66.4941 44.526 66.3254ZM70.9413 61.2279C71.3322 61.2279 71.6158 60.4613 70.0827 60.4613C69.5615 60.308 69.0709 60.2697 68.5496 60.0704C67.3615 59.6028 68.6493 59.3038 69.8758 59.5798C70.6423 59.8327 70.9106 59.1198 70.0444 58.9589C69.9294 58.9589 67.4305 58.4759 68.0514 58.0927C68.2145 58.0093 68.3909 57.9549 68.5726 57.9317C69.4623 57.7705 70.3801 57.9453 71.1482 58.4223C72.0068 59.0509 71.7615 61.1512 71.4702 62.255C71.3705 62.5387 71.0869 62.6077 70.7496 62.6C70.0797 62.5312 69.4279 62.3417 68.8256 62.0404C68.5726 61.8871 68.5803 61.7415 68.6799 61.5651C69.1782 60.6146 70.4047 61.2509 70.9643 61.2279H70.9413ZM72.7503 71.9596C72.896 71.8063 72.8346 71.7066 72.6967 70.4265C77.3974 73.3055 82.2603 75.911 87.2611 78.2299C85.0305 81.6871 84.5169 88.0801 85.728 91.6906C82.5545 90.2571 80.8068 89.3909 78.2082 87.9191C78.8751 81.9017 74.5977 75.8843 70.42 74.3052C71.4625 73.3164 72.2904 72.4655 72.7733 71.9596H72.7503ZM86.6019 92.0815C86.3797 91.589 86.2076 91.0754 86.0883 90.5484C90.358 90.0042 115.064 79.5714 127.375 74.2439C128.187 75.0104 128.977 75.777 129.728 76.5435C115.501 83.1129 89.6987 92.7254 86.6249 92.0815H86.6019ZM71.7385 26.2272C74.2834 16.9596 83.0758 11.6627 87.5217 9.89201C104.478 3.13104 117.417 7.40072 121.971 24.9394C123.956 32.5512 122.737 38.5916 120.085 43.2216C116.367 49.7526 109.867 53.478 105.727 54.8732C94.1754 58.7826 83.4974 58.7059 76.8437 48.3728C72.5204 41.6885 69.6228 33.9004 71.7385 26.2272ZM70.9259 35.9777C71.9051 40.5222 73.7418 44.8383 76.3378 48.6948C80.0326 54.4362 84.8771 56.8892 89.7217 57.6404C95.9001 58.5986 102.094 56.7819 105.934 55.4864C106.932 55.1444 107.908 54.7399 108.855 54.2753C112.051 57.9164 116.152 62.485 120.223 66.8237C119.134 67.2836 118.025 67.7435 116.896 68.2035C103.642 73.5693 89.3538 78.4829 87.6444 77.747C82.494 75.4012 77.4873 72.752 72.6507 69.8132C72.6507 69.8132 72.2981 66.5324 71.7308 62.3317C72.1447 61.0132 72.551 58.8899 71.4855 58.0237C71.3573 57.9178 71.2186 57.8253 71.0716 57.7477C70.7158 55.1997 70.2168 52.6738 69.5768 50.1819C69.5684 50.1526 69.5539 50.1254 69.5341 50.1021C69.5144 50.0789 69.4899 50.0601 69.4624 50.047C69.4348 50.034 69.4048 50.0269 69.3743 50.0264C69.3438 50.0259 69.3135 50.0318 69.2855 50.0439C69.1935 50.0439 68.7413 50.3582 68.0744 50.8104L66.112 50.1359C66.0047 50.0976 66.112 49.9749 62.5859 52.1136C59.7602 48.2573 56.0582 45.128 51.7852 42.984C59.65 40.2167 65.9894 37.8404 70.9259 35.9777ZM58.5308 54.6739C58.6075 54.6739 65.928 50.2739 66.0353 50.3122L67.7907 50.9331C54.5448 59.3651 63.3371 56.1916 42.4946 55.0725C43.7517 54.1219 44.0277 53.9226 44.0737 53.8766C44.9016 53.3477 58.1629 54.5972 58.5308 54.6739ZM46.473 22.1031C46.6275 23.1793 46.689 24.2667 46.657 25.3533C46.0238 25.977 45.1768 26.3361 44.2883 26.3575C42.9699 26.4265 41.5287 26.2655 41.0458 25.0314C39.6354 21.5589 44.7406 20.754 46.473 22.1031ZM45.2925 20.2941C45.6528 20.846 45.9747 21.2753 46.174 21.5359C44.48 20.8613 40.0033 21.2446 40.4096 24.3338C39.8287 24.2191 39.227 24.275 38.6772 24.4948C38.2556 21.2216 32.3225 21.9498 31.5329 24.2188C31.3487 24.0938 31.1402 24.0087 30.9211 23.9691C30.7019 23.9295 30.4769 23.9362 30.2605 23.9889C30.1301 22.5707 30.3065 20.5547 31.4409 20.0028C31.7629 19.8418 32.3685 20.7157 32.8744 20.846C34.0225 21.1411 35.2149 21.2243 36.3929 21.0913C37.7423 20.9743 39.0836 20.7772 40.4096 20.5011C42.2953 20.0488 42.142 19.6272 43.4375 18.8453C43.5831 18.761 44.0507 18.5004 44.204 18.5694C44.9552 18.9526 44.7253 19.4356 45.2925 20.2941ZM38.2556 24.97C38.2096 26.5031 36.7915 27.331 35.3197 27.4077C34.0012 27.4843 32.5601 27.3157 32.0772 26.0892C31.8699 25.7137 31.7769 25.2859 31.8096 24.8582C31.8422 24.4306 31.9992 24.0218 32.2612 23.6822C33.7023 21.9958 38.3936 21.8962 38.2556 24.97ZM26.3204 16.6453C25.9371 14.8385 25.6809 13.0071 25.5538 11.1645C30.2298 12 35.3427 12.6056 35.9329 12.391C36.6382 12.138 40.1796 11.1721 43.7671 10.0913C43.7287 12.5059 43.5831 14.062 43.5678 14.5526C37.7522 14.4984 31.9543 15.2018 26.3204 16.6453ZM18.1566 8.6272C20.1573 6.75682 32.6138 1.6516 34.6375 1.19933C36.4542 0.823722 49.7308 4.65647 51.6319 6.46553C50.3287 7.80699 37.1977 11.2565 35.726 11.7777C34.9364 12.0613 19.8507 9.96866 18.1566 8.6272ZM30.8584 34.1457C29.8677 33.2727 29.1581 32.1257 28.8193 30.8495C28.758 30.0829 28.2214 28.2509 27.6772 27.9979C27.0044 27.474 26.4263 26.8388 25.9678 26.1199C25.2626 25.0544 25.3315 23.7436 26.512 23.138C28.4974 22.1261 29.011 24.8244 29.4632 25.292C29.7239 25.5526 30.4368 25.2077 30.3218 24.4258C30.6719 24.5706 31.0468 24.6461 31.4256 24.6481C31.377 25.1827 31.4558 25.7213 31.6556 26.2195C32.2075 27.676 33.7866 27.9443 35.3427 27.8676C37.1594 27.768 38.7462 26.6641 38.7078 24.8704C39.0761 24.9547 39.4587 24.9547 39.827 24.8704C39.9497 25.2767 40.8772 28.9254 40.5399 29.1784C40.3823 29.2937 40.2094 29.3865 40.0263 29.4544C39.1448 29.8146 38.9148 29.6843 38.9378 29.876C38.9387 29.8898 38.9425 29.9033 38.9489 29.9156C38.9553 29.9279 38.9642 29.9387 38.975 29.9473C38.9858 29.956 38.9983 29.9623 39.0117 29.9658C39.0251 29.9694 39.0391 29.9701 39.0528 29.968C39.8193 29.968 41.2145 29.761 41.1761 29.0328C41.1162 27.5646 40.7479 26.1255 40.0953 24.8091C40.2252 24.7671 40.3509 24.7132 40.4709 24.6481C40.9078 26.4955 42.3873 26.9094 44.3037 26.8098C45.1347 26.7774 45.9364 26.4942 46.6033 25.9972C46.5755 28.2444 46.1579 30.4698 45.3692 32.5742C43.9664 36.039 41.8584 36.5756 41.8584 36.5756C41.8163 36.5853 41.7766 36.6035 41.7419 36.6292C41.7072 36.6549 41.6782 36.6874 41.6566 36.7248C41.635 36.7622 41.6214 36.8037 41.6165 36.8466C41.6117 36.8895 41.6157 36.933 41.6284 36.9742L42.9929 41.4049C41.7434 43.2446 42.142 43.145 41.8507 43.0223C40.8159 42.593 36.1782 41.1289 33.8326 40.4697C33.7775 39.2228 33.6598 37.9794 33.48 36.7443C33.4723 36.4913 32.974 36.3457 30.8584 34.1457ZM27.7922 42.1561C29.5936 43.6892 37.7573 48.5491 40.1643 49.3847C40.4016 49.5028 40.6724 49.5353 40.9308 49.4767C41.1838 49.3617 41.0688 49.6836 42.1113 43.7889C42.5023 44.2335 43.5141 45.3219 46.1127 48.0125C46.1503 48.0543 46.1979 48.0858 46.2511 48.1041C46.3042 48.1223 46.3612 48.1266 46.4165 48.1166C46.4718 48.1066 46.5236 48.0827 46.567 48.047C46.6105 48.0114 46.6441 47.9652 46.6646 47.9129C47.3342 46.0609 47.8973 44.1721 48.351 42.2558C48.6099 42.3117 48.8657 42.3808 49.1176 42.4627C48.9796 45.9122 49.0179 52.6348 45.8291 53.4934C45.2092 53.4564 44.5872 53.4873 43.974 53.5854C38.9838 53.2787 33.2423 49.1164 29.8389 45.6746C28.7504 44.5937 27.6619 43.6355 26.65 42.524L27.7922 42.1561ZM14.9141 70.1888C21.1308 64.6083 30.1915 63.3895 38.4089 65.0989C38.7845 65.2139 38.6772 65.1679 39.0758 66.3484C39.5027 66.0293 39.8957 65.6671 40.2486 65.2676C40.5169 65.0146 39.9267 64.3094 39.9803 63.3742C39.9803 63.1902 40.0263 63.0293 40.2026 62.9986C40.9692 62.8683 40.9692 64.7923 41.4061 64.9533C41.843 65.1143 41.8584 64.5164 42.8395 63.9491C46.3197 61.9178 42.2186 65.3212 42.2186 65.4132C42.2164 65.4581 42.2237 65.5029 42.2398 65.5449C42.256 65.5868 42.2808 65.6248 42.3126 65.6566C42.3443 65.6884 42.3824 65.7131 42.4243 65.7293C42.4662 65.7455 42.511 65.7527 42.5559 65.7505C42.9085 65.7505 43.0005 65.3596 44.089 65.0989C44.2653 65.0529 44.6639 64.984 44.6946 65.1603C44.7713 65.5282 43.3761 66.2258 43.0465 66.4481C41.5594 66.9617 42.073 67.5826 42.4486 67.4829C43.0542 67.3296 43.5754 66.632 44.3037 66.862C44.4953 66.9233 44.8172 67.1226 44.7789 67.3219C44.7406 67.5212 44.4416 67.7435 44.273 67.8739C42.9852 68.832 40.126 69.1387 40.0493 69.177C40.1106 69.8822 40.6702 70.8557 40.5322 71.1547C38.3502 75.6556 35.3625 79.7188 31.7169 83.1435C31.6326 83.1819 28.6507 86.0564 28.0528 85.9568C27.4549 85.8571 28.2674 85.7421 30.0612 84.186C34.1629 80.4605 37.5074 75.9786 39.9113 70.986C39.6814 70.2195 38.3782 66.5017 38.1483 65.7122C33.7827 64.7989 29.2755 64.7989 24.9099 65.7122C16.5775 67.5442 13.588 72.1512 13.1817 72.2202C12.6758 72.2355 14.5232 70.5798 14.9525 70.1888H14.9141ZM24.2737 116.626C23.7831 115.967 23.5608 113.146 23.6605 110.494C24.565 110.624 25.4619 110.732 26.3664 110.831C26.5044 111.161 26.466 111.13 26.535 111.207C26.2437 112.234 25.0862 115.806 24.312 116.626H24.2737ZM63.3678 108.325C56.9329 109.554 50.4186 110.322 43.8744 110.624C32.7594 111.169 19.6974 110.433 9.43329 105.979C3.34689 103.35 1.32319 98.9651 1.4765 94.7184C1.65375 91.1773 3.08266 87.8142 5.50856 85.2285C5.93261 86.3102 6.48051 87.3391 7.14131 88.2947C8.00751 89.3066 22.5413 89.9812 37.1824 90.0118C38.1686 89.0449 39.2104 88.1363 40.3023 87.2906C45.4918 89.2376 47.9678 90.3568 65.0082 100.981L63.3678 108.325ZM66.3726 101.717C68.0974 102.323 70.1134 110.578 69.3852 111.904C68.8179 111.751 67.1698 109.781 65.5524 107.305C65.5213 107.256 65.4762 107.217 65.4229 107.194C65.3696 107.171 65.3106 107.164 65.2535 107.175L63.889 107.458C64.096 106.523 64.4409 104.875 65.0695 101.947C65.2495 101.799 65.4648 101.699 65.6946 101.659C65.9243 101.619 66.1606 101.639 66.3803 101.717H66.3726ZM65.2228 101.157C65.2228 101.027 65.2918 100.927 65.2228 100.866C65.2995 100.866 49.5315 90.832 45.3692 88.9156C44.0047 88.2871 42.5483 87.6738 41.0228 87.0683C44.3329 84.4886 47.8361 82.1668 51.5016 80.1233C56.5071 80.7366 61.6737 81.3038 62.1566 81.1352C63.8277 80.5833 67.3615 77.3484 69.9907 74.7728C72.8193 75.6927 76.3761 79.3721 77.4186 84.0404C78.2925 87.9345 77.342 92.4035 72.712 96.2132C70.382 98.1005 67.8738 99.7564 65.2228 101.157ZM137.876 84.0174C135.531 87.9038 88.4953 106.247 85.3371 104.914C80.6633 102.788 76.1198 100.387 71.7308 97.7233C74.2144 95.8606 76.3301 93.8906 77.4799 90.8933C78.7294 91.5832 85.3217 95.117 86.2646 95.2627C84.5475 97.6926 83.6507 100.36 84.3252 103.242C84.8005 105.228 130.916 85.1059 133.047 84.0787C133.262 83.9791 133.453 83.9024 133.522 83.7644C133.79 83.0921 133.973 82.3892 134.067 81.6718C136.198 82.7679 137.562 83.6111 137.907 84.0174H137.876ZM135.515 59.8864C132.227 56.3833 128.578 52.6655 125.152 49.2467C133.231 52.8955 139.379 55.8467 140.153 56.8509C139.639 57.7631 136.42 59.5031 135.546 59.8864H135.515Z" fill="black"/>
</svg>
